<?xml version="1.0" encoding="UTF-8" standalone="no"?>
<svg
   xmlns="http://www.w3.org/2000/svg"
   width="118.50548mm"
   height="123.43996mm"
   viewBox="0 0 419.9013 437.3857"
   version="1.1">
  <g transform="translate(34.950649,-649.92826)">
    <path id="logo" d="m 105,685.36133 70,307 70,-307 -140,0 z m 145.75195,34.94336 -9.1582,40.16601 A 134.62849,134.62848 0 0 1 309.62891,877.36133 134.62849,134.62848 0 0 1 175,1011.9902 134.62849,134.62848 0 0 1 40.371094,877.36133 134.62849,134.62848 0 0 1 107.13281,761.28125 L 97.951172,721.01172 A 174.5184,174.5184 0 0 0 0.48242188,877.36133 174.5184,174.5184 0 0 0 175,1051.8809 174.5184,174.5184 0 0 0 349.51758,877.36133 174.5184,174.5184 0 0 0 250.75195,720.30469 Z M 62,819.89062 l 0,117.3711 23,0 0,-49.27344 35.51758,49.27344 26.74219,0 -0.86719,-3.80469 -39.24024,-54.4375 20.23633,-28.9043 -6.89062,-30.22461 -0.28711,0 L 85,870.17969 l 0,-50.28907 -23,0 z m 166.04492,0 -21.33203,93.5586 0,23.8125 23,0 0,-49.27344 35.51758,49.27344 28.61719,0 -41.98243,-58.24219 41.39844,-59.12891 -28.33984,0 -35.21094,50.28907 0,-50.28907 -1.66797,0 z"/>
    <g id="text" transform="scale(1.0614404,0.94211604)">
      <path d="m 59.257822,1016.7675 3.141863,0 0,-4.4156 2.059195,-2.6323 4.054702,7.0479 3.460295,0 -5.646862,-9.5317 4.79771,-6.1776 -3.460296,0 -5.201057,6.8144 -0.06369,0 0,-6.8144 -3.141863,0 0,15.7093 z"/>
      <path d="m 73.811165,1016.7675 9.871395,0 0,-2.6324 -6.729532,0 0,-4.2033 5.51949,0 0,-2.6323 -5.51949,0 0,-3.6302 6.496015,0 0,-2.6111 -9.637878,0 0,15.7093 z"/>
      <path d="m 86.871856,1016.7675 2.823432,0 0,-6.5597 c 0,-1.486 -0.254746,-3.6726 -0.403348,-5.1586 l 0.08492,0 1.252499,3.6938 2.441313,6.6022 1.804449,0 2.420084,-6.6022 1.273728,-3.6938 0.08492,0 c -0.148601,1.486 -0.382118,3.6726 -0.382118,5.1586 l 0,6.5597 2.865885,0 0,-15.7093 -3.48152,0 -2.611144,7.3452 c -0.339661,0.9765 -0.615635,2.0167 -0.955296,3.0357 l -0.106144,0 c -0.318432,-1.019 -0.615636,-2.0592 -0.955296,-3.0357 l -2.67483,-7.3452 -3.481525,0 0,15.7093 z"/>
      <path d="m 104.99098,1016.7675 3.14186,0 0,-15.7093 -3.14186,0 0,15.7093 z"/>
      <path d="m 118.23941,1017.0647 c 4.16085,0 7.02673,-3.1206 7.02673,-8.2155 0,-5.0949 -2.86588,-8.0882 -7.02673,-8.0882 -4.16085,0 -7.02674,2.972 -7.02674,8.0882 0,5.0949 2.86589,8.2155 7.02674,8.2155 z m 0,-2.7173 c -2.33517,0 -3.82119,-2.1441 -3.82119,-5.4982 0,-3.3754 1.48602,-5.3921 3.82119,-5.3921 2.33517,0 3.82118,2.0167 3.82118,5.3921 0,3.3541 -1.48601,5.4982 -3.82118,5.4982 z m -2.61114,-14.5417 c 0.91283,0 1.52847,-0.65809 1.52847,-1.5497 0,-0.87038 -0.61564,-1.52848 -1.52847,-1.52848 -0.91284,0 -1.54971,0.6581 -1.54971,1.52848 0,0.89161 0.63687,1.5497 1.54971,1.5497 z m 5.22228,0 c 0.91284,0 1.54971,-0.65809 1.54971,-1.5497 0,-0.87038 -0.63687,-1.52848 -1.54971,-1.52848 -0.91284,0 -1.5497,0.6581 -1.5497,1.52848 0,0.89161 0.63686,1.5497 1.5497,1.5497 z"/>
      <path d="m 128.33438,1016.7675 2.97203,0 0,-6.3049 c 0,-1.8045 -0.23352,-3.7788 -0.38212,-5.4771 l 0.10614,0 1.59216,3.3754 4.54297,8.4066 3.18432,0 0,-15.7093 -2.97203,0 0,6.2625 c 0,1.7832 0.23351,3.8636 0.40334,5.4983 l -0.10614,0 -1.57093,-3.3967 -4.5642,-8.3641 -3.20554,0 0,15.7093 z"/>
      <path d="m 195.23646,1016.7675 3.14186,0 0,-4.4156 2.0592,-2.6323 4.0547,7.0479 3.4603,0 -5.64687,-9.5317 4.79771,-6.1776 -3.46029,0 -5.20106,6.8144 -0.0637,0 0,-6.8144 -3.14186,0 0,15.7093 z"/>
      <path d="m 209.78981,1016.7675 3.14186,0 0,-15.7093 -3.14186,0 0,15.7093 z"/>
      <path d="m 216.79696,1016.7675 3.14187,0 0,-15.7093 -3.14187,0 0,15.7093 z"/>
      <path d="m 223.80413,1016.7675 9.51051,0 0,-2.6324 -6.36864,0 0,-13.0769 -3.14187,0 0,15.7093 z"/>
      <path d="m 238.86199,1010.2927 0.46704,-1.7195 c 0.46703,-1.6346 0.93406,-3.4178 1.33741,-5.1374 l 0.0849,0 c 0.46703,1.6983 0.89161,3.5028 1.37987,5.1374 l 0.46703,1.7195 -3.73627,0 z m 5.51949,6.4748 3.29047,0 -5.05246,-15.7093 -3.69381,0 -5.03123,15.7093 3.18432,0 1.1039,-4.0335 5.09492,0 1.10389,4.0335 z"/>
      <path d="m 251.01449,1016.7675 3.14186,0 0,-13.0982 4.45805,0 0,-2.6111 -12.0155,0 0,2.6111 4.41559,0 0,13.0982 z"/>
    </g>
  </g>
</svg>
