<?xml version="1.0" encoding="UTF-8" standalone="no"?>
<svg xmlns="http://www.w3.org/2000/svg" version="1.1" viewBox="0 0 744.09448819 1052.3622047" height="297mm" width="210mm">
  <g>
    <path d="M 420.46094,98.410156 C 389.72788,98.113409 368.24203,107.26299 342.5,132.36133 311.99092,162.1075 303.43167,202.00651 314.64258,256.29102 L 160,164.50586 15,310.93359 l 67.857422,66.07227 86.427738,-91.07227 47.14257,34.28516 -48.21289,260.35742 -2.14257,39.28516 49.19726,37.88281 -10.62695,79.97461 -105.000002,-27.85742 -41.427734,90 L 280,860.57617 l 68.57227,-156.78515 91.42773,15 48.21484,157.5 119.64258,-38.92969 -79.64258,-215.35547 -131.78711,-25 L 415,430.93359 l 157.14258,15.71485 95,-137.14258 -92.5,-32.85742 -55.71485,68.57031 -108.04618,-22.54382 c 45.30094,3.88829 104.40929,-26.90215 109.20131,-96.61907 5.30328,-77.15508 -40.47794,-122.31523 -81.51059,-126.550001 -6.41136,-0.661682 -12.42003,-1.04075 -18.11133,-1.095703 z" />
  </g>
</svg>
