<?xml version="1.0" encoding="UTF-8" standalone="no"?>
<svg
   xmlns:dc="http://purl.org/dc/elements/1.1/"
   xmlns:cc="http://creativecommons.org/ns#"
   xmlns:rdf="http://www.w3.org/1999/02/22-rdf-syntax-ns#"
   xmlns:svg="http://www.w3.org/2000/svg"
   xmlns="http://www.w3.org/2000/svg"
   xmlns:sodipodi="http://sodipodi.sourceforge.net/DTD/sodipodi-0.dtd"
   xmlns:inkscape="http://www.inkscape.org/namespaces/inkscape"
   width="215.65858mm"
   height="215.72069mm"
   viewBox="0 0 215.65858 215.72069"
   version="1.1"
   id="svg8"
   inkscape:version="1.0.1 (c497b03c, 2020-09-10)"
   sodipodi:docname="kiila.svg">
  <defs
     id="defs2" />
  <sodipodi:namedview
     id="base"
     pagecolor="#ffffff"
     bordercolor="#666666"
     borderopacity="1.0"
     inkscape:pageopacity="0.0"
     inkscape:pageshadow="2"
     inkscape:zoom="0.7"
     inkscape:cx="498.75573"
     inkscape:cy="364.10137"
     inkscape:document-units="mm"
     inkscape:current-layer="g897"
     inkscape:document-rotation="0"
     showgrid="false"
     fit-margin-top="20"
     fit-margin-left="20"
     fit-margin-right="20"
     fit-margin-bottom="20"
     inkscape:pagecheckerboard="true"
     inkscape:window-width="1252"
     inkscape:window-height="943"
     inkscape:window-x="0"
     inkscape:window-y="23"
     inkscape:window-maximized="0" />
  <metadata
     id="metadata5">
    <rdf:RDF>
      <cc:Work
         rdf:about="">
        <dc:format>image/svg+xml</dc:format>
        <dc:type
           rdf:resource="http://purl.org/dc/dcmitype/StillImage" />
        <dc:title></dc:title>
      </cc:Work>
    </rdf:RDF>
  </metadata>
  <g
     inkscape:label="Layer 1"
     inkscape:groupmode="layer"
     id="layer1"
     transform="translate(2.7791838,-39.555379)">
    <g
       id="g897">
      <ellipse
         style="fill:#ffffff;fill-opacity:1;stroke-width:2.73607"
         id="path927"
         cx="105.51099"
         cy="147.27859"
         rx="87.123505"
         ry="88.068451" />
      <path
         style="fill:#676e46;stroke-width:0.264583"
         d="m 137.65451,192.03644 c 0.25744,-0.0671 0.61462,-0.0627 0.79375,0.01 0.17913,0.0725 -0.0315,0.12736 -0.46805,0.12197 -0.43656,-0.005 -0.58313,-0.0647 -0.3257,-0.13178 z m -53.715448,-7.67195 c 0.254662,-0.0665 0.67138,-0.0665 0.926042,0 0.254661,0.0666 0.0463,0.121 -0.463021,0.121 -0.509323,0 -0.717682,-0.0545 -0.463021,-0.121 z m -40.277894,-4.3712 c -0.51386,-0.55157 -0.938583,-1.4829 -0.756682,-1.65926 0.04967,-0.0482 3.126399,-0.76143 6.83718,-1.58506 7.202665,-1.59868 14.768833,-3.44764 18.653125,-4.55831 4.393679,-1.25632 8.478147,-3.27773 18.15881,-8.98685 4.258474,-2.51141 4.723389,-2.72461 5.334325,-2.44625 0.457507,0.20845 0.723466,0.59384 0.84056,1.218 0.09421,0.50218 0.232571,1.07276 0.30747,1.26794 0.110506,0.28797 -0.06844,0.30294 -0.949169,0.0794 -0.871043,-0.2211 -1.175271,-0.19814 -1.540756,0.11626 -0.250473,0.21547 -3.486608,2.92245 -7.19141,6.01552 l -6.736003,5.62376 -0.576212,-0.72263 -0.576212,-0.72264 -4.707134,2.41129 c -2.588926,1.32621 -4.755549,2.36288 -4.81472,2.30371 -0.05917,-0.0592 -0.172779,-0.59366 -0.252466,-1.18776 -0.08853,-0.66003 -0.28408,-1.08019 -0.502745,-1.08019 -0.371967,0 -20.092112,4.16494 -20.671089,4.36579 -0.180861,0.0627 -0.566452,-0.14098 -0.856872,-0.45271 z m 122.100292,0.29504 c -0.51697,-0.21781 -20.25888,-4.4727 -20.75247,-4.4727 -0.13721,0 -0.32983,0.53578 -0.42803,1.19062 -0.0982,0.65485 -0.22581,1.19063 -0.28358,1.19063 -0.0578,0 -2.23929,-1.06838 -4.84783,-2.37418 l -4.7428,-2.37418 -0.50948,0.6994 -0.50947,0.6994 -2.74859,-2.27711 c -1.51172,-1.25241 -4.75472,-3.95087 -7.20667,-5.99657 -3.90156,-3.25515 -4.54563,-3.6986 -5.15937,-3.55226 -0.38571,0.092 -0.85012,0.28444 -1.03202,0.42771 -0.23062,0.18165 -0.32919,0.15058 -0.32563,-0.10263 0.006,-0.43975 0.73146,-3.09558 0.76499,-2.80121 0.013,0.11426 0.25589,0.0835 0.53973,-0.0685 0.42487,-0.22738 0.95087,-0.0122 2.97656,1.21756 7.71496,4.68373 15.29499,8.64899 18.62097,9.74099 2.89339,0.94998 13.25769,3.52612 20.88119,5.19021 3.4925,0.76236 6.38796,1.41614 6.43437,1.45284 0.0464,0.0367 -0.19173,0.59911 -0.52917,1.2498 -0.51972,1.00216 -0.69445,1.14897 -1.1427,0.96013 z M 48.484895,158.15646 c 1.127787,-0.0496 2.973256,-0.0496 4.101042,0 1.127787,0.0496 0.205052,0.0902 -2.050521,0.0902 -2.255573,0 -3.178307,-0.0406 -2.050521,-0.0902 z m 86.530845,-2.2e-4 c 1.13444,-0.0497 2.92037,-0.0494 3.96875,8e-4 1.04837,0.0501 0.1202,0.0908 -2.06262,0.0904 -2.18281,-2.7e-4 -3.04057,-0.0414 -1.90613,-0.0911 z m 5.79417,-6.54999 c 0.005,-0.43656 0.0647,-0.58312 0.13178,-0.32569 0.0671,0.25743 0.0627,0.61462 -0.01,0.79375 -0.0725,0.17913 -0.12736,-0.0315 -0.12197,-0.46806 z m 25.06381,-67.799476 -0.64143,-0.727604 0.72761,0.641433 c 0.40018,0.352789 0.7276,0.680211 0.7276,0.727603 0,0.207508 -0.21426,0.03862 -0.81378,-0.641432 z M 108.81493,73.767691 c 0.25743,-0.06708 0.61462,-0.06267 0.79375,0.0098 0.17913,0.07248 -0.0315,0.127362 -0.46806,0.12197 -0.43656,-0.0054 -0.58312,-0.06469 -0.32569,-0.131774 z"
         id="path901"
         sodipodi:nodetypes="cccccscssssssssssssscccsssscsscsssscccsssscsccssssccssssccccccscccscssssssss" />
      <path
         style="fill:#124c9c;stroke-width:0.264583"
         d="m 99.21875,235.06602 c -15.479274,-1.14522 -29.696831,-5.88317 -42.054603,-14.01454 -3.942159,-2.59392 -8.745397,-6.2494 -8.745397,-6.65564 0,-0.11859 -0.169209,-0.21563 -0.376021,-0.21563 -0.636931,0 -8.612922,-8.14228 -11.458376,-11.69726 -6.664051,-8.32578 -11.437399,-16.97012 -14.798561,-26.79961 -1.02338,-2.99281 -2.58608,-8.84354 -2.979992,-11.15706 -0.144491,-0.84862 -0.388346,-2.25732 -0.5419,-3.13044 -1.384439,-7.87207 -1.391584,-20.10724 -0.01645,-28.16234 0.138117,-0.80905 0.364826,-2.12584 0.503796,-2.92621 0.376267,-2.167 1.534861,-6.64659 2.533507,-9.79553 6.375419,-20.10308 20.423292,-37.774582 38.804938,-48.81462 2.434617,-1.462233 8.062783,-4.343245 10.15718,-5.199375 8.668342,-3.543376 14.1835,-5.034035 24.077083,-6.507656 2.187001,-0.325748 4.850485,-0.433802 10.715626,-0.434719 6.80888,-0.0011 8.32871,0.07703 11.90625,0.611814 2.25558,0.337169 4.84519,0.778497 5.75469,0.98073 0.90951,0.202232 2.45732,0.546294 3.43958,0.764583 9.64648,2.143729 21.92223,7.831057 30.49323,14.127441 4.8511,3.563685 11.71411,9.91042 15.33668,14.182962 11.66527,13.75829 18.49159,29.62363 20.52254,47.69732 0.69037,6.14372 0.42528,17.46065 -0.54505,23.26857 -3.43331,20.55012 -13.34758,38.51367 -28.7461,52.08471 -4.1743,3.6789 -12.00039,9.37336 -12.88214,9.37336 -0.14103,0 -0.2961,0.10616 -0.34461,0.23591 -0.15019,0.40177 -8.11549,4.41944 -11.54265,5.82207 -12.26245,5.01867 -26.38764,7.31005 -39.213254,6.36116 z m 15.09472,-4.33797 c 9.03741,-1.12745 16.01659,-2.94832 23.41869,-6.10995 24.47555,-10.45414 42.88381,-32.15514 48.91624,-57.66601 2.79335,-11.81298 3.10583,-24.00645 0.9018,-35.18959 -1.36067,-6.90393 -3.30873,-13.04303 -6.04495,-19.05 C 174.65809,97.680614 163.28983,84.708916 149.4312,76.114569 135.83978,67.68593 120.78036,63.378079 104.90729,63.3782 c -10.630743,8e-5 -22.308417,2.303713 -31.485415,6.21107 -0.436563,0.185878 -1.448594,0.61352 -2.248959,0.950316 -2.59824,1.093346 -8.699561,4.432785 -11.839786,6.480278 -12.651129,8.248799 -22.909503,19.815462 -29.543582,33.311386 -4.118488,8.37838 -6.578419,16.46935 -8.004016,26.32604 -0.586599,4.0558 -0.67235,17.0652 -0.135159,20.50521 0.90316,5.78357 1.217283,7.41781 2.059683,10.71563 0.886545,3.47063 1.593426,5.71282 2.919471,9.26041 0.993659,2.65836 1.163569,3.04312 3.059416,6.92807 4.211416,8.63 9.094473,15.45183 16.077764,22.4613 11.571036,11.61442 25.903039,19.46259 41.678084,22.8228 2.992665,0.63747 4.805617,0.93846 8.863542,1.47158 2.952231,0.38785 14.630727,0.32673 18.005137,-0.0942 z m -14.16868,-9.9714 c -4.34642,-0.28649 -9.083316,-1.06228 -13.514264,-2.21332 -5.542275,-1.43972 -8.949979,-2.71227 -14.134693,-5.27837 -7.634687,-3.77867 -13.291444,-7.86905 -19.584225,-14.16126 -20.11477,-20.11297 -26.708638,-49.84858 -17.048457,-76.88147 2.71988,-7.61127 8.010996,-16.74873 12.91295,-22.299939 7.534225,-8.532114 14.325606,-13.862664 23.612864,-18.533714 7.074588,-3.558181 14.313302,-5.773408 23.133593,-7.079454 3.782324,-0.56006 14.540972,-0.636038 18.115982,-0.127936 12.57979,1.787916 22.08731,5.246784 31.51287,11.464479 25.23414,16.646054 37.63513,45.627724 32.24295,75.353294 -1.82762,10.07516 -6.72783,21.37315 -12.878,29.69163 -6.08785,8.23419 -14.22985,15.5252 -22.97186,20.57085 -2.54649,1.46977 -7.70797,3.8762 -10.70804,4.99241 -7.12559,2.65114 -13.71146,4.02946 -21.69584,4.54057 -4.38214,0.28052 -4.15232,0.28148 -8.99583,-0.0378 z m 6.12343,-4.0342 c 0.0209,-0.0158 -0.7208,-3.06479 -1.64822,-6.77557 -1.53622,-6.14666 -11.607973,-46.65251 -22.368085,-89.95834 -6.544363,-26.338858 -8.361802,-33.671084 -8.545814,-34.477005 -0.221988,-0.972248 -0.514721,-0.874085 -4.385268,1.470509 -7.102253,4.30221 -13.10459,9.584544 -18.22549,16.039276 -2.227421,2.8076 -4.74073,6.42874 -5.85403,8.43441 -0.343294,0.61847 -0.72131,1.12448 -0.840034,1.12448 -0.118724,0 -0.215863,0.15476 -0.215863,0.34391 0,0.18915 -0.645035,1.64964 -1.433409,3.24553 -5.208182,10.54281 -7.630526,21.86078 -7.187977,33.58452 0.295101,7.81763 1.452039,13.85482 4.100146,21.39558 0.580777,1.65382 3.393594,8.05914 3.733692,8.50234 0.111673,0.14552 0.528384,0.85989 0.926023,1.5875 2.435215,4.45595 6.659023,10.13017 10.493936,14.09744 11.847814,12.25671 26.058985,19.25413 43.078006,21.21112 3.451727,0.3969 7.953397,0.49062 8.372387,0.1743 z M 82.162838,201.06577 c -0.223624,-0.53521 -0.406588,-1.00763 -0.406588,-1.04983 0,-0.0422 0.473477,-0.15671 1.052171,-0.25448 1.857314,-0.31379 3.719589,-2.05513 4.489778,-4.19822 0.255458,-0.71082 0.235715,-0.74609 -0.319736,-0.57109 -0.325604,0.10258 -1.280721,0.24975 -2.122485,0.32704 -4.757986,0.43687 -7.734874,-4.21055 -5.327986,-8.31788 0.964507,-1.64593 2.50171,-2.45443 4.666586,-2.45443 2.053834,0 3.217865,0.43746 4.345072,1.63296 1.610424,1.70799 1.816463,2.39682 1.806655,6.03995 -0.0096,3.54826 -0.307446,4.65096 -1.866527,6.90924 -0.718442,1.04065 -2.61057,2.18903 -4.077695,2.47486 -0.509323,0.0992 -1.13003,0.23769 -1.37935,0.30769 -0.327691,0.092 -0.565978,-0.14237 -0.859895,-0.84581 z m 4.823057,-8.70405 c 1.306383,-0.86452 1.441985,-1.65676 0.600761,-3.5099 -1.357961,-2.99145 -5.530533,-2.88585 -6.350892,0.16073 -0.435795,1.61842 0.332645,3.42817 1.711111,4.02984 0.963541,0.42055 2.857185,0.10143 4.03902,-0.68067 z m -15.283812,2.4629 v -6.12643 l -0.549418,0.49722 c -0.540276,0.48895 -0.557789,0.48633 -1.052452,-0.15743 -0.765598,-0.99635 -0.637614,-1.37373 0.922751,-2.72085 1.037947,-0.8961 1.663096,-1.24109 2.248958,-1.24109 h 0.811411 v 7.9375 7.9375 H 72.892708 71.702083 Z M 46.566666,143.13959 v -14.94896 h 4.101042 4.101042 v 7.54062 c 0,4.14735 0.10061,7.54063 0.223575,7.54063 0.122968,0 0.439076,-0.23813 0.702466,-0.52917 0.26339,-0.29104 0.580531,-0.52917 0.704758,-0.52917 0.124224,0 0.552257,-0.28936 0.951179,-0.64302 0.722331,-0.64038 5.96781,-4.65416 12.763855,-9.76676 1.964531,-1.4779 3.868314,-2.95498 4.230629,-3.2824 0.362315,-0.32743 0.798672,-0.59532 0.96968,-0.59532 0.311996,0 2.472608,2.54352 2.472608,2.91081 0,0.10771 -0.777436,0.77677 -1.727634,1.48679 -0.950198,0.71002 -2.051527,1.56297 -2.447396,1.89546 -0.39587,0.33248 -2.714059,2.16305 -5.151533,4.06792 -2.437474,1.90488 -4.431771,3.49602 -4.431771,3.53585 0,0.0398 3.095625,2.12976 6.879167,4.64426 3.783542,2.5145 6.879167,4.68189 6.879167,4.81643 0,0.36727 -4.842889,5.41402 -5.230315,5.45049 -0.184537,0.0173 -3.658603,-2.17108 -7.720145,-4.86321 -4.061545,-2.69214 -7.547568,-4.8948 -7.74672,-4.8948 -0.199152,0 -0.802976,0.45151 -1.341831,1.00335 l -0.979739,1.00334 v 4.55291 4.5529 h -4.101042 -4.101042 z m 68.659374,73.0262 c 17.8363,-2.60687 34.27768,-12.35947 45.29259,-26.86639 7.09212,-9.34049 11.40725,-19.58204 13.48468,-32.00461 0.66392,-3.97007 0.67748,-15.28813 0.0235,-19.59461 -1.47021,-9.68115 -5.08826,-19.40238 -10.02748,-26.94257 -0.7043,-1.07518 -1.28055,-2.05745 -1.28055,-2.18281 0,-0.12536 -0.0934,-0.22792 -0.20754,-0.22792 -0.11414,0 -0.40388,-0.33239 -0.64386,-0.73864 -0.95291,-1.61315 -4.36566,-5.64097 -7.29967,-8.615274 -4.82165,-4.887862 -10.48489,-9.365591 -15.66143,-12.382955 -4.77086,-2.780894 -6.08966,-3.435064 -6.19997,-3.075403 -0.0571,0.186072 -0.47777,2.302843 -0.93489,4.703937 -0.45713,2.401094 -0.9391,4.901406 -1.07105,5.55625 -0.13196,0.654844 -0.60107,3.095625 -1.04247,5.423958 -1.3223,6.974897 -3.69424,19.353687 -4.38535,22.886457 -0.80645,4.12239 -1.901,9.82762 -3.29942,17.19792 -0.59363,3.1287 -1.19611,6.22432 -1.33886,6.87916 -0.14274,0.65485 -0.73774,3.75047 -1.32222,6.87917 -0.58448,3.1287 -1.28981,6.7601 -1.5674,8.06979 -0.27759,1.30969 -0.75893,3.81 -1.06965,5.55625 -0.31073,1.74625 -0.78785,4.3061 -1.06029,5.68854 -0.27244,1.38245 -0.86162,4.47808 -1.3093,6.87917 -0.44768,2.40109 -1.04253,5.49672 -1.3219,6.87917 -0.27936,1.38244 -0.8771,4.47807 -1.3283,6.87916 -0.45119,2.4011 -1.04269,5.49672 -1.31443,6.87917 -0.27175,1.38245 -0.86076,4.41854 -1.30893,6.74687 -0.44816,2.32834 -1.0535,5.4666 -1.34521,6.97391 -0.2917,1.50731 -0.53036,2.86475 -0.53036,3.01653 0,0.35232 4.09451,0.11678 8.06979,-0.46423 z m 4.49792,-15.8473 c -1.34873,-0.61381 -3.14832,-2.35791 -2.97364,-2.88195 0.0531,-0.15937 0.40414,-0.51938 0.78005,-0.80004 l 0.68346,-0.51027 0.95313,1.055 c 1.10821,1.22666 2.76867,1.8183 4.29793,1.53141 1.34237,-0.25183 2.74136,-1.66816 2.74136,-2.77536 0,-2.13901 -1.6833,-3.36557 -4.22428,-3.07809 -1.44475,0.16345 -1.51715,0.14221 -1.82612,-0.53592 -0.30822,-0.67645 -0.22952,-0.8019 1.87214,-2.98449 l 2.19388,-2.27836 -3.37343,-0.074 -3.37344,-0.074 v -1.18272 -1.18272 h 5.29167 5.29166 v 1.00669 c 0,0.90501 -0.20245,1.20439 -2.00442,2.96421 l -2.00443,1.95752 1.27682,0.57324 c 2.92884,1.31494 4.03296,4.07641 2.75502,6.89051 -1.2321,2.71316 -5.16418,3.83268 -8.35736,2.37944 z m 15.55003,-0.0324 c -1.15185,-0.58254 -2.98232,-2.33847 -2.98232,-2.86087 0,-0.0783 0.35543,-0.39544 0.78985,-0.70477 l 0.78985,-0.56243 0.99608,1.04449 c 1.85099,1.94093 4.40303,2.11427 6.10278,0.41451 0.86668,-0.86667 0.90497,-0.98369 0.78708,-2.40521 -0.0998,-1.20385 -0.26117,-1.61228 -0.83024,-2.10178 -1.18693,-1.02095 -2.6524,-1.27092 -4.6136,-0.78694 -2.90371,0.71656 -3.04704,0.42134 -2.16972,-4.46896 0.28717,-1.60073 0.52371,-2.99972 0.52565,-3.10886 0.002,-0.10914 2.08711,-0.19843 4.63372,-0.19843 5.07442,0 4.85605,-0.0789 4.3941,1.5875 -0.18098,0.65283 -0.22808,0.66318 -3.61165,0.79375 l -3.42828,0.13229 -0.38303,1.51315 c -0.21066,0.83224 -0.32868,1.5675 -0.26225,1.63392 0.0664,0.0664 0.61422,-0.011 1.21733,-0.17192 1.62599,-0.434 3.68962,0.0982 5.11645,1.31953 1.39042,1.19014 1.85341,2.24994 1.84777,4.22963 -0.009,3.11703 -2.17759,5.15391 -5.65842,5.3144 -1.60861,0.0742 -2.07618,-0.0137 -3.26115,-0.613 z m -2.60828,-42.17554 c -0.0602,-0.0606 -0.10946,-6.81743 -0.10946,-15.0151 v -14.90486 h 4.24381 4.24381 l -0.0334,7.42945 c -0.0184,4.0862 0.0115,7.47446 0.0665,7.52946 0.055,0.055 0.74995,-0.39041 1.54433,-0.98981 3.96097,-2.98876 9.21899,-7.00561 10.03742,-7.66805 0.5061,-0.40964 1.07165,-0.7448 1.25677,-0.7448 0.18513,0 0.33659,-0.10628 0.33659,-0.23617 0,-0.28918 6.96026,-5.58467 7.34036,-5.58467 0.14943,0 0.48423,0.32437 0.74399,0.72082 0.25977,0.39644 0.69383,0.9586 0.96459,1.24922 0.27076,0.29063 0.45826,0.70515 0.41666,0.92115 -0.0741,0.38465 -1.77884,1.79153 -6.81976,5.62813 -3.3962,2.5848 -6.61678,5.24779 -6.6047,5.4612 0.005,0.0961 2.80254,2.02016 6.21579,4.27573 3.41326,2.25558 6.20678,4.17646 6.20783,4.26862 0.001,0.0922 0.24003,0.22985 0.53108,0.30596 0.29104,0.0761 0.52596,0.29836 0.52204,0.49388 -0.004,0.19553 -1.16478,1.56918 -2.57969,3.05257 l -2.57256,2.69707 -7.4904,-5.01217 c -4.11972,-2.7567 -7.63207,-5.0077 -7.80521,-5.00224 -0.17315,0.005 -0.77497,0.40389 -1.33739,0.88538 l -1.02259,0.87545 -0.13986,4.65801 -0.13986,4.65801 -3.95362,0.079 c -2.17449,0.0435 -4.00287,0.0294 -4.06307,-0.0312 z"
         id="path899" />
    </g>
  </g>
</svg>
